# xmcd
#
# Track frame offsets: 
#        150
#        17055
#        29200
#        69320
#        92663
#        108882
#        121715
#        139191
#        164674
#        186665
#        202512
#        225092
#        240426
#        261189
#        281563
#        299970
#        318806
#
# Disc length: 4420 seconds
#
# Revision: 2
# Processed by: cddbd v1.5.2PL0 Copyright (c) Steve Scherf et al.
# Submitted via: ExactAudioCopyFreeDBPlugin 1.0
#
DISCID=ef114211
DTITLE=Jethro Tull - 50 For 50
DYEAR=2018
DGENRE=Progressive Rock
TTITLE0=Bouree
TTITLE1=Dun Ringill
TTITLE2=Heavy Horses
TTITLE3=Hunting Girl
TTITLE4=Bungle In The Jungle
TTITLE5=Salamander
TTITLE6=Pussy Willow
TTITLE7=Too Old To Rock 'N' Roll
TTITLE8=Songs From The Wood
TTITLE9=The Whistler
TTITLE10=Really Don't Mind - See There A Son Is Born
TTITLE11=Moths
TTITLE12=One White Duck - 010 =Nothing At All
TTITLE13=Cup Of Wonder
TTITLE14=Ring Out Solstice Bells
TTITLE15=Skating Away (On The Thin Ice Of The New Day)
TTITLE16=A Christmas Song
EXTD=
EXTT0=
EXTT1=
EXTT2=
EXTT3=
EXTT4=
EXTT5=
EXTT6=
EXTT7=
EXTT8=
EXTT9=
EXTT10=
EXTT11=
EXTT12=
EXTT13=
EXTT14=
EXTT15=
EXTT16=
PLAYORDER=
